<svg xmlns="http://www.w3.org/2000/svg" xmlns:xlink="http://www.w3.org/1999/xlink" width="276" height="276" viewBox="0 0 276 276">
  <defs>
    <filter id="Ellipse_373" x="0" y="0" width="276" height="276" filterUnits="userSpaceOnUse">
      <feOffset dy="3" input="SourceAlpha"/>
      <feGaussianBlur stdDeviation="3" result="blur"/>
      <feFlood flood-opacity="0.161"/>
      <feComposite operator="in" in2="blur"/>
      <feComposite in="SourceGraphic"/>
    </filter>
  </defs>
  <g id="Delete" transform="translate(8.829 6.137)">
    <g transform="matrix(1, 0, 0, 1, -8.83, -6.14)" filter="url(#Ellipse_373)">
      <circle id="Ellipse_373-2" data-name="Ellipse 373" cx="129" cy="129" r="129" transform="translate(9 6)" fill="#ff5349"/>
    </g>
    <g id="Group_44" data-name="Group 44" transform="translate(60.44 55.673)">
      <path id="Path_470" data-name="Path 470" d="M115.013,139.792H41.838a1.535,1.535,0,0,0-.366-.2c-6.33-1.328-10.23-5.518-10.827-11.92-.761-8.152-1.376-16.319-2.056-24.478q-1.229-14.731-2.462-29.461-1.1-13.163-2.186-26.33c-.3-3.64-.586-7.282-.885-11h110.66a2.62,2.62,0,0,1,.062.468q-1.551,18.859-3.107,37.718-2.133,25.762-4.255,51.524c-.3,3.756-1.219,7.2-4.013,9.94A15.3,15.3,0,0,1,115.013,139.792ZM61.29,118.583c-.272-4.524-.474-7.99-.689-11.459q-1.094-17.669-2.2-35.338-.709-11.4-1.432-22.8a4.1,4.1,0,0,0-2.254-3.57,4.248,4.248,0,0,0-6.269,3.953c.1,3.709.411,7.413.641,11.117q1.085,17.384,2.174,34.767c.483,7.742.949,15.485,1.445,23.226a4.3,4.3,0,0,0,8.581.1ZM108.428,49.61a4.258,4.258,0,0,0-4.015-4.684A4.368,4.368,0,0,0,99.871,49.1c-.5,7.841-.965,15.683-1.454,23.524q-.935,14.969-1.885,29.937c-.324,5.181-.682,10.359-.923,15.542a4.208,4.208,0,0,0,4.149,4.524,4.291,4.291,0,0,0,4.388-4.17c.116-1.566.2-3.136.3-4.7q.91-14.756,1.819-29.514C106.971,72.84,107.689,61.435,108.428,49.61ZM82.714,83.777q0-16.719,0-33.435c0-3.429-1.579-5.422-4.286-5.422s-4.288,1.993-4.288,5.422v66.87a13.838,13.838,0,0,0,.025,1.428,4.158,4.158,0,0,0,2.87,3.733c2.919,1.045,5.67-1.093,5.675-4.448Q82.732,100.85,82.714,83.777Z" transform="translate(-14.144 6.586)" fill="#fff"/>
      <path id="Path_471" data-name="Path 471" d="M52,27.326a48.774,48.774,0,0,1,.033-5.6A12.569,12.569,0,0,1,64.748,10.215q17.149-.169,34.3,0c7.346.082,12.663,5.59,12.851,12.946.033,1.325,0,2.652,0,4.162h1.607c7.908,0,15.815-.018,23.724.01a8.547,8.547,0,0,1,2.223,16.887,13.035,13.035,0,0,1-2.694.242q-54.877.017-109.755.008c-4.393,0-7.645-2.074-8.874-5.63a8.522,8.522,0,0,1,8.288-11.5c7.908-.062,15.815-.015,23.724-.016Zm8.452-.075h42.873c0-1.392.026-2.714,0-4.034a4.3,4.3,0,0,0-4.527-4.458c-1.571-.026-3.141,0-4.712,0q-14.417,0-28.836,0c-3.068,0-4.762,1.713-4.792,4.771C60.442,24.718,60.452,25.906,60.452,27.251Z" transform="translate(-17.608 -10.127)" fill="#fff"/>
    </g>
  </g>
</svg>
