<svg xmlns="http://www.w3.org/2000/svg" xmlns:xlink="http://www.w3.org/1999/xlink" width="276" height="276" viewBox="0 0 276 276">
  <defs>
    <filter id="Ellipse_372" x="0" y="0" width="276" height="276" filterUnits="userSpaceOnUse">
      <feOffset dy="3" input="SourceAlpha"/>
      <feGaussianBlur stdDeviation="3" result="blur"/>
      <feFlood flood-opacity="0.161"/>
      <feComposite operator="in" in2="blur"/>
      <feComposite in="SourceGraphic"/>
    </filter>
  </defs>
  <g id="Edit" transform="translate(9.446 6.137)">
    <g transform="matrix(1, 0, 0, 1, -9.45, -6.14)" filter="url(#Ellipse_372)">
      <circle id="Ellipse_372-2" data-name="Ellipse 372" cx="129" cy="129" r="129" transform="translate(9 6)" fill="#0f46b3"/>
    </g>
    <g id="Group_43" data-name="Group 43" transform="translate(77.531 71.636)">
      <path id="Path_467" data-name="Path 467" d="M24.577,123.074a5.686,5.686,0,0,1-5.229-8.286c2.617-5.428,5.332-10.808,8.007-16.209Q31.1,91.02,34.844,83.457a11.289,11.289,0,0,1,2.183-3.022q23.2-23.173,46.363-46.387c.825-.826,1.211-.855,2.042,0Q96.439,45.32,107.556,56.49c.741.746.886,1.139.048,1.973Q84.277,81.7,61.02,105.008a10.163,10.163,0,0,1-2.7,1.955Q42.9,114.589,27.48,122.238A6.062,6.062,0,0,1,24.577,123.074Z" transform="translate(-18.73 -8.639)" fill="#fff"/>
      <path id="Path_468" data-name="Path 468" d="M91.924,16.865a16.539,16.539,0,0,1,15.022,10.448c2.942,6.8,1.714,13.177-3.284,18.623-3.44,3.748-7.184,7.221-10.759,10.85-.546.555-.829.5-1.353-.021Q80.1,45.27,68.608,33.827c-.54-.537-.536-.819,0-1.355,3.537-3.54,7-7.154,10.56-10.671C82.463,18.546,86.492,16.959,91.924,16.865Z" transform="translate(5.859 -16.865)" fill="#fff"/>
      <path id="Path_469" data-name="Path 469" d="M84.57,97.1c-8.5,0-16.994.018-25.491-.009a5.7,5.7,0,0,1-.952-11.349c.488-.045.982-.043,1.475-.043q24.952,0,49.907,0a8.332,8.332,0,0,1,2.4.2,5.719,5.719,0,0,1,4.06,6.427,5.591,5.591,0,0,1-5.635,4.755c-8.587.037-17.174.013-25.759.013Z" transform="translate(-1.643 17.345)" fill="#fff"/>
    </g>
  </g>
</svg>
